<svg width="200" height="75" viewBox="0 0 200 75" fill="none" xmlns="http://www.w3.org/2000/svg">
<path d="M37.262 71.5841C56.2634 71.5841 71.667 56.1804 71.667 37.1791C71.667 18.1777 56.2634 2.77405 37.262 2.77405C18.2606 2.77405 2.85696 18.1777 2.85696 37.1791C2.85696 56.1804 18.2606 71.5841 37.262 71.5841Z" fill="#AFDDE9"/>
<path d="M2.94699 37.2305H18.1752L25.7894 20.7676L37.0404 68.21L46.3053 5.83939L56.6574 37.2305H71.6799" stroke="#FFF5F5" stroke-opacity="0.743719" stroke-width="1.465" stroke-linejoin="round"/>
<path d="M90.5 37.4844H80.6406V45.5469H92.0938V48H77.6406V25.25H91.9375V27.7188H80.6406V35.0312H90.5V37.4844ZM98.0938 31.0938L98.1719 32.9688C99.4115 31.5104 101.083 30.7812 103.188 30.7812C105.552 30.7812 107.161 31.6875 108.016 33.5C108.578 32.6875 109.307 32.0312 110.203 31.5312C111.109 31.0312 112.177 30.7812 113.406 30.7812C117.115 30.7812 119 32.7448 119.062 36.6719V48H116.172V36.8438C116.172 35.6354 115.896 34.7344 115.344 34.1406C114.792 33.5365 113.865 33.2344 112.562 33.2344C111.49 33.2344 110.599 33.5573 109.891 34.2031C109.182 34.8385 108.771 35.6979 108.656 36.7812V48H105.75V36.9219C105.75 34.4635 104.547 33.2344 102.141 33.2344C100.245 33.2344 98.9479 34.0417 98.25 35.6562V48H95.3594V31.0938H98.0938ZM137.75 39.7344C137.75 42.3177 137.156 44.3958 135.969 45.9688C134.781 47.5312 133.188 48.3125 131.188 48.3125C129.052 48.3125 127.401 47.5573 126.234 46.0469L126.094 48H123.438V24H126.328V32.9531C127.495 31.5052 129.104 30.7812 131.156 30.7812C133.208 30.7812 134.818 31.5573 135.984 33.1094C137.161 34.6615 137.75 36.7865 137.75 39.4844V39.7344ZM134.859 39.4062C134.859 37.4375 134.479 35.9167 133.719 34.8438C132.958 33.7708 131.865 33.2344 130.438 33.2344C128.531 33.2344 127.161 34.1198 126.328 35.8906V43.2031C127.214 44.974 128.594 45.8594 130.469 45.8594C131.854 45.8594 132.932 45.3229 133.703 44.25C134.474 43.1771 134.859 41.5625 134.859 39.4062ZM149.578 33.6875C149.141 33.6146 148.667 33.5781 148.156 33.5781C146.26 33.5781 144.974 34.3854 144.297 36V48H141.406V31.0938H144.219L144.266 33.0469C145.214 31.5365 146.557 30.7812 148.297 30.7812C148.859 30.7812 149.286 30.8542 149.578 31V33.6875ZM162.062 48C161.896 47.6667 161.76 47.0729 161.656 46.2188C160.312 47.6146 158.708 48.3125 156.844 48.3125C155.177 48.3125 153.807 47.8438 152.734 46.9062C151.672 45.9583 151.141 44.7604 151.141 43.3125C151.141 41.5521 151.807 40.1875 153.141 39.2188C154.484 38.2396 156.37 37.75 158.797 37.75H161.609V36.4219C161.609 35.4115 161.307 34.6094 160.703 34.0156C160.099 33.4115 159.208 33.1094 158.031 33.1094C157 33.1094 156.135 33.3698 155.438 33.8906C154.74 34.4115 154.391 35.0417 154.391 35.7812H151.484C151.484 34.9375 151.781 34.125 152.375 33.3438C152.979 32.5521 153.792 31.9271 154.812 31.4688C155.844 31.0104 156.974 30.7812 158.203 30.7812C160.151 30.7812 161.677 31.2708 162.781 32.25C163.885 33.2188 164.458 34.5573 164.5 36.2656V44.0469C164.5 45.599 164.698 46.8333 165.094 47.75V48H162.062ZM157.266 45.7969C158.172 45.7969 159.031 45.5625 159.844 45.0938C160.656 44.625 161.245 44.0156 161.609 43.2656V39.7969H159.344C155.802 39.7969 154.031 40.8333 154.031 42.9062C154.031 43.8125 154.333 44.5208 154.938 45.0312C155.542 45.5417 156.318 45.7969 157.266 45.7969ZM175.812 45.9531C176.844 45.9531 177.745 45.6406 178.516 45.0156C179.286 44.3906 179.714 43.6094 179.797 42.6719H182.531C182.479 43.6406 182.146 44.5625 181.531 45.4375C180.917 46.3125 180.094 47.0104 179.062 47.5312C178.042 48.0521 176.958 48.3125 175.812 48.3125C173.51 48.3125 171.677 47.5469 170.312 46.0156C168.958 44.474 168.281 42.3698 168.281 39.7031V39.2188C168.281 37.5729 168.583 36.1094 169.188 34.8281C169.792 33.5469 170.656 32.5521 171.781 31.8438C172.917 31.1354 174.255 30.7812 175.797 30.7812C177.693 30.7812 179.266 31.349 180.516 32.4844C181.776 33.6198 182.448 35.0938 182.531 36.9062H179.797C179.714 35.8125 179.297 34.9167 178.547 34.2188C177.807 33.5104 176.891 33.1562 175.797 33.1562C174.328 33.1562 173.188 33.6875 172.375 34.75C171.573 35.8021 171.172 37.3281 171.172 39.3281V39.875C171.172 41.8229 171.573 43.3229 172.375 44.375C173.177 45.4271 174.323 45.9531 175.812 45.9531ZM192.797 48.3125C190.505 48.3125 188.641 47.5625 187.203 46.0625C185.766 44.5521 185.047 42.5365 185.047 40.0156V39.4844C185.047 37.8073 185.365 36.3125 186 35C186.646 33.6771 187.542 32.6458 188.688 31.9062C189.844 31.1562 191.094 30.7812 192.438 30.7812C194.635 30.7812 196.344 31.5052 197.562 32.9531C198.781 34.401 199.391 36.474 199.391 39.1719V40.375H187.938C187.979 42.0417 188.464 43.3906 189.391 44.4219C190.328 45.4427 191.516 45.9531 192.953 45.9531C193.974 45.9531 194.839 45.7448 195.547 45.3281C196.255 44.9115 196.875 44.3594 197.406 43.6719L199.172 45.0469C197.755 47.224 195.63 48.3125 192.797 48.3125ZM192.438 33.1562C191.271 33.1562 190.292 33.5833 189.5 34.4375C188.708 35.2812 188.219 36.4688 188.031 38H196.5V37.7812C196.417 36.3125 196.021 35.1771 195.312 34.375C194.604 33.5625 193.646 33.1562 192.438 33.1562Z" fill="#123456"/>
</svg>
