<svg width="215" height="95" viewBox="0 0 215 95" fill="none" xmlns="http://www.w3.org/2000/svg">
<g filter="url(#filter0_f)">
<path fill-rule="evenodd" clip-rule="evenodd" d="M84.9178 47.3398C84.9178 52.1747 83.9655 56.9622 82.1153 61.429C80.2651 65.8957 77.5532 69.9544 74.1345 73.3731C70.7157 76.7918 66.6571 79.5037 62.1903 81.354C57.7235 83.2042 52.936 84.1564 48.1012 84.1564C43.2664 84.1564 38.4789 83.2042 34.0121 81.354C29.5453 79.5037 25.4867 76.7918 22.068 73.3731C18.6492 69.9544 15.9373 65.8957 14.0871 61.429C12.2369 56.9622 11.2846 52.1747 11.2846 47.3398C11.2846 42.505 12.2369 37.7175 14.0871 33.2507C15.9373 28.7839 18.6492 24.7253 22.068 21.3066C25.4867 17.8878 29.5453 15.176 34.0121 13.3258C38.4789 11.4755 43.2664 10.5233 48.1012 10.5233C52.936 10.5233 57.7235 11.4755 62.1903 13.3258C66.6571 15.176 70.7157 17.8878 74.1345 21.3066C77.5532 24.7253 80.2651 28.7839 82.1153 33.2507C83.9655 37.7175 84.9178 42.505 84.9178 47.3398Z" fill="#48BCFF" fill-opacity="0.515152"/>
<path fill-rule="evenodd" clip-rule="evenodd" d="M84.9178 47.3398C84.9178 52.1747 83.9655 56.9622 82.1153 61.429C80.2651 65.8957 77.5532 69.9544 74.1345 73.3731C70.7157 76.7918 66.6571 79.5037 62.1903 81.354C57.7235 83.2042 52.936 84.1564 48.1012 84.1564C43.2664 84.1564 38.4789 83.2042 34.0121 81.354C29.5453 79.5037 25.4867 76.7918 22.068 73.3731C18.6492 69.9544 15.9373 65.8957 14.0871 61.429C12.2369 56.9622 11.2846 52.1747 11.2846 47.3398C11.2846 42.505 12.2369 37.7175 14.0871 33.2507C15.9373 28.7839 18.6492 24.7253 22.068 21.3066C25.4867 17.8878 29.5453 15.176 34.0121 13.3258C38.4789 11.4755 43.2664 10.5233 48.1012 10.5233C52.936 10.5233 57.7235 11.4755 62.1903 13.3258C66.6571 15.176 70.7157 17.8878 74.1345 21.3066C77.5532 24.7253 80.2651 28.7839 82.1153 33.2507C83.9655 37.7175 84.9178 42.505 84.9178 47.3398Z" stroke="url(#paint0_linear)" stroke-width="1.465"/>
</g>
<path d="M48.262 81.5841C67.2634 81.5841 82.667 66.1804 82.667 47.1791C82.667 28.1777 67.2634 12.774 48.262 12.774C29.2606 12.774 13.857 28.1777 13.857 47.1791C13.857 66.1804 29.2606 81.5841 48.262 81.5841Z" fill="#AFDDE9"/>
<path d="M13.947 47.2305H29.1752L36.7894 30.7676L48.0404 78.21L57.3053 15.8394L67.6574 47.2305H82.6799" stroke="#FFF5F5" stroke-opacity="0.743719" stroke-width="1.465" stroke-linejoin="round"/>
<path d="M101.5 47.4844H91.6406V55.5469H103.094V58H88.6406V35.25H102.938V37.7188H91.6406V45.0312H101.5V47.4844ZM109.094 41.0938L109.172 42.9688C110.411 41.5104 112.083 40.7812 114.188 40.7812C116.552 40.7812 118.161 41.6875 119.016 43.5C119.578 42.6875 120.307 42.0312 121.203 41.5312C122.109 41.0312 123.177 40.7812 124.406 40.7812C128.115 40.7812 130 42.7448 130.062 46.6719V58H127.172V46.8438C127.172 45.6354 126.896 44.7344 126.344 44.1406C125.792 43.5365 124.865 43.2344 123.562 43.2344C122.49 43.2344 121.599 43.5573 120.891 44.2031C120.182 44.8385 119.771 45.6979 119.656 46.7812V58H116.75V46.9219C116.75 44.4635 115.547 43.2344 113.141 43.2344C111.245 43.2344 109.948 44.0417 109.25 45.6562V58H106.359V41.0938H109.094ZM148.75 49.7344C148.75 52.3177 148.156 54.3958 146.969 55.9688C145.781 57.5312 144.188 58.3125 142.188 58.3125C140.052 58.3125 138.401 57.5573 137.234 56.0469L137.094 58H134.438V34H137.328V42.9531C138.495 41.5052 140.104 40.7812 142.156 40.7812C144.208 40.7812 145.818 41.5573 146.984 43.1094C148.161 44.6615 148.75 46.7865 148.75 49.4844V49.7344ZM145.859 49.4062C145.859 47.4375 145.479 45.9167 144.719 44.8438C143.958 43.7708 142.865 43.2344 141.438 43.2344C139.531 43.2344 138.161 44.1198 137.328 45.8906V53.2031C138.214 54.974 139.594 55.8594 141.469 55.8594C142.854 55.8594 143.932 55.3229 144.703 54.25C145.474 53.1771 145.859 51.5625 145.859 49.4062ZM160.578 43.6875C160.141 43.6146 159.667 43.5781 159.156 43.5781C157.26 43.5781 155.974 44.3854 155.297 46V58H152.406V41.0938H155.219L155.266 43.0469C156.214 41.5365 157.557 40.7812 159.297 40.7812C159.859 40.7812 160.286 40.8542 160.578 41V43.6875ZM173.062 58C172.896 57.6667 172.76 57.0729 172.656 56.2188C171.312 57.6146 169.708 58.3125 167.844 58.3125C166.177 58.3125 164.807 57.8438 163.734 56.9062C162.672 55.9583 162.141 54.7604 162.141 53.3125C162.141 51.5521 162.807 50.1875 164.141 49.2188C165.484 48.2396 167.37 47.75 169.797 47.75H172.609V46.4219C172.609 45.4115 172.307 44.6094 171.703 44.0156C171.099 43.4115 170.208 43.1094 169.031 43.1094C168 43.1094 167.135 43.3698 166.438 43.8906C165.74 44.4115 165.391 45.0417 165.391 45.7812H162.484C162.484 44.9375 162.781 44.125 163.375 43.3438C163.979 42.5521 164.792 41.9271 165.812 41.4688C166.844 41.0104 167.974 40.7812 169.203 40.7812C171.151 40.7812 172.677 41.2708 173.781 42.25C174.885 43.2188 175.458 44.5573 175.5 46.2656V54.0469C175.5 55.599 175.698 56.8333 176.094 57.75V58H173.062ZM168.266 55.7969C169.172 55.7969 170.031 55.5625 170.844 55.0938C171.656 54.625 172.245 54.0156 172.609 53.2656V49.7969H170.344C166.802 49.7969 165.031 50.8333 165.031 52.9062C165.031 53.8125 165.333 54.5208 165.938 55.0312C166.542 55.5417 167.318 55.7969 168.266 55.7969ZM186.812 55.9531C187.844 55.9531 188.745 55.6406 189.516 55.0156C190.286 54.3906 190.714 53.6094 190.797 52.6719H193.531C193.479 53.6406 193.146 54.5625 192.531 55.4375C191.917 56.3125 191.094 57.0104 190.062 57.5312C189.042 58.0521 187.958 58.3125 186.812 58.3125C184.51 58.3125 182.677 57.5469 181.312 56.0156C179.958 54.474 179.281 52.3698 179.281 49.7031V49.2188C179.281 47.5729 179.583 46.1094 180.188 44.8281C180.792 43.5469 181.656 42.5521 182.781 41.8438C183.917 41.1354 185.255 40.7812 186.797 40.7812C188.693 40.7812 190.266 41.349 191.516 42.4844C192.776 43.6198 193.448 45.0938 193.531 46.9062H190.797C190.714 45.8125 190.297 44.9167 189.547 44.2188C188.807 43.5104 187.891 43.1562 186.797 43.1562C185.328 43.1562 184.188 43.6875 183.375 44.75C182.573 45.8021 182.172 47.3281 182.172 49.3281V49.875C182.172 51.8229 182.573 53.3229 183.375 54.375C184.177 55.4271 185.323 55.9531 186.812 55.9531ZM203.797 58.3125C201.505 58.3125 199.641 57.5625 198.203 56.0625C196.766 54.5521 196.047 52.5365 196.047 50.0156V49.4844C196.047 47.8073 196.365 46.3125 197 45C197.646 43.6771 198.542 42.6458 199.688 41.9062C200.844 41.1562 202.094 40.7812 203.438 40.7812C205.635 40.7812 207.344 41.5052 208.562 42.9531C209.781 44.401 210.391 46.474 210.391 49.1719V50.375H198.938C198.979 52.0417 199.464 53.3906 200.391 54.4219C201.328 55.4427 202.516 55.9531 203.953 55.9531C204.974 55.9531 205.839 55.7448 206.547 55.3281C207.255 54.9115 207.875 54.3594 208.406 53.6719L210.172 55.0469C208.755 57.224 206.63 58.3125 203.797 58.3125ZM203.438 43.1562C202.271 43.1562 201.292 43.5833 200.5 44.4375C199.708 45.2812 199.219 46.4688 199.031 48H207.5V47.7812C207.417 46.3125 207.021 45.1771 206.312 44.375C205.604 43.5625 204.646 43.1562 203.438 43.1562Z" fill="#123456"/>
<defs>
<filter id="filter0_f" x="0.800987" y="0.0396042" width="94.6004" height="94.6005" filterUnits="userSpaceOnUse" color-interpolation-filters="sRGB">
<feFlood flood-opacity="0" result="BackgroundImageFix"/>
<feBlend mode="normal" in="SourceGraphic" in2="BackgroundImageFix" result="shape"/>
<feGaussianBlur stdDeviation="4.87557" result="effect1_foregroundBlur"/>
</filter>
<linearGradient id="paint0_linear" x1="10.1452" y1="47.3399" x2="86.0573" y2="47.3399" gradientUnits="userSpaceOnUse">
<stop/>
<stop offset="1" stop-opacity="0"/>
</linearGradient>
</defs>
</svg>
